<svg xmlns="http://www.w3.org/2000/svg" viewBox="0 0 178 27" id="svg11961625616"><path d="M 13.757 22.877 C 12.241 22.877 10.836 22.643 9.539 22.175 C 8.261 21.689 7.148 21.005 6.199 20.123 C 5.267 19.241 4.537 18.206 4.008 17.018 C 3.478 15.812 3.214 14.489 3.214 13.049 C 3.214 11.609 3.478 10.295 4.008 9.107 C 4.537 7.901 5.267 6.857 6.199 5.975 C 7.148 5.093 8.261 4.418 9.539 3.95 C 10.836 3.464 12.241 3.221 13.757 3.221 C 15.528 3.221 17.107 3.527 18.494 4.139 C 19.9 4.751 21.068 5.633 21.999 6.785 L 18.549 9.863 C 17.928 9.143 17.244 8.594 16.495 8.216 C 15.765 7.838 14.943 7.649 14.031 7.649 C 13.245 7.649 12.524 7.775 11.867 8.027 C 11.21 8.279 10.644 8.648 10.169 9.134 C 9.713 9.602 9.348 10.169 9.074 10.835 C 8.818 11.501 8.691 12.239 8.691 13.049 C 8.691 13.859 8.818 14.597 9.074 15.263 C 9.348 15.929 9.713 16.505 10.169 16.991 C 10.644 17.459 11.21 17.819 11.867 18.071 C 12.524 18.323 13.245 18.449 14.031 18.449 C 14.943 18.449 15.765 18.26 16.495 17.882 C 17.244 17.504 17.928 16.955 18.549 16.235 L 21.999 19.313 C 21.068 20.447 19.9 21.329 18.494 21.959 C 17.107 22.571 15.528 22.877 13.757 22.877 Z" fill="var(--token-ad4d2a8b-0add-4634-8710-f4704da278ff, rgb(13, 13, 13)) /* {&quot;name&quot;:&quot;White&quot;} */"></path><path d="M 36.147 22.877 C 34.614 22.877 33.199 22.634 31.903 22.148 C 30.606 21.662 29.475 20.978 28.507 20.096 C 27.558 19.196 26.818 18.152 26.289 16.964 C 25.759 15.776 25.495 14.471 25.495 13.049 C 25.495 11.627 25.759 10.322 26.289 9.134 C 26.818 7.946 27.558 6.911 28.507 6.029 C 29.475 5.129 30.606 4.436 31.903 3.95 C 33.199 3.464 34.614 3.221 36.147 3.221 C 37.699 3.221 39.114 3.464 40.392 3.95 C 41.688 4.436 42.811 5.129 43.76 6.029 C 44.709 6.911 45.449 7.946 45.978 9.134 C 46.526 10.322 46.8 11.627 46.8 13.049 C 46.8 14.471 46.526 15.785 45.978 16.991 C 45.449 18.179 44.709 19.214 43.76 20.096 C 42.811 20.978 41.688 21.662 40.392 22.148 C 39.114 22.634 37.699 22.877 36.147 22.877 Z M 36.147 18.449 C 36.877 18.449 37.553 18.323 38.174 18.071 C 38.813 17.819 39.36 17.459 39.817 16.991 C 40.291 16.505 40.657 15.929 40.912 15.263 C 41.186 14.597 41.323 13.859 41.323 13.049 C 41.323 12.221 41.186 11.483 40.912 10.835 C 40.657 10.169 40.291 9.602 39.817 9.134 C 39.36 8.648 38.813 8.279 38.174 8.027 C 37.553 7.775 36.877 7.649 36.147 7.649 C 35.417 7.649 34.732 7.775 34.093 8.027 C 33.473 8.279 32.925 8.648 32.45 9.134 C 31.994 9.602 31.629 10.169 31.355 10.835 C 31.099 11.483 30.972 12.221 30.972 13.049 C 30.972 13.859 31.099 14.597 31.355 15.263 C 31.629 15.929 31.994 16.505 32.45 16.991 C 32.925 17.459 33.473 17.819 34.093 18.071 C 34.732 18.323 35.417 18.449 36.147 18.449 Z" fill="var(--token-ad4d2a8b-0add-4634-8710-f4704da278ff, rgb(13, 13, 13)) /* {&quot;name&quot;:&quot;White&quot;} */"></path><path d="M 52.104 22.499 L 52.104 3.599 L 56.568 3.599 L 64.509 16.451 L 62.154 16.451 L 69.877 3.599 L 74.341 3.599 L 74.395 22.499 L 69.411 22.499 L 69.357 11.078 L 70.205 11.078 L 64.427 20.636 L 62.017 20.636 L 56.075 11.078 L 57.116 11.078 L 57.116 22.499 Z" fill="var(--token-ad4d2a8b-0add-4634-8710-f4704da278ff, rgb(13, 13, 13)) /* {&quot;name&quot;:&quot;White&quot;} */"></path><path d="M 78.835 10.916 L 94.581 10.916 L 94.581 14.912 L 78.835 14.912 Z" fill="var(--token-ad4d2a8b-0add-4634-8710-f4704da278ff, rgb(13, 13, 13)) /* {&quot;name&quot;:&quot;White&quot;} */"></path><path d="M 105.641 22.499 L 105.641 7.838 L 99.753 7.838 L 99.753 3.599 L 116.923 3.599 L 116.923 7.838 L 111.063 7.838 L 111.063 22.499 Z" fill="var(--token-ad4d2a8b-0add-4634-8710-f4704da278ff, rgb(13, 13, 13)) /* {&quot;name&quot;:&quot;White&quot;} */"></path><path d="M 121.408 22.499 L 121.408 3.599 L 126.83 3.599 L 126.83 22.499 Z" fill="var(--token-ad4d2a8b-0add-4634-8710-f4704da278ff, rgb(13, 13, 13)) /* {&quot;name&quot;:&quot;White&quot;} */"></path><path d="M 142.709 22.877 C 141.194 22.877 139.788 22.643 138.492 22.175 C 137.214 21.689 136.1 21.005 135.151 20.123 C 134.22 19.241 133.49 18.206 132.96 17.018 C 132.431 15.812 132.166 14.489 132.166 13.049 C 132.166 11.609 132.431 10.295 132.96 9.107 C 133.49 7.901 134.22 6.857 135.151 5.975 C 136.1 5.093 137.214 4.418 138.492 3.95 C 139.788 3.464 141.194 3.221 142.709 3.221 C 144.48 3.221 146.059 3.527 147.447 4.139 C 148.853 4.751 150.021 5.633 150.952 6.785 L 147.502 9.863 C 146.881 9.143 146.196 8.594 145.448 8.216 C 144.717 7.838 143.896 7.649 142.983 7.649 C 142.198 7.649 141.477 7.775 140.82 8.027 C 140.162 8.279 139.596 8.648 139.122 9.134 C 138.665 9.602 138.3 10.169 138.026 10.835 C 137.771 11.501 137.643 12.239 137.643 13.049 C 137.643 13.859 137.771 14.597 138.026 15.263 C 138.3 15.929 138.665 16.505 139.122 16.991 C 139.596 17.459 140.162 17.819 140.82 18.071 C 141.477 18.323 142.198 18.449 142.983 18.449 C 143.896 18.449 144.717 18.26 145.448 17.882 C 146.196 17.504 146.881 16.955 147.502 16.235 L 150.952 19.313 C 150.021 20.447 148.853 21.329 147.447 21.959 C 146.059 22.571 144.48 22.877 142.709 22.877 Z" fill="var(--token-ad4d2a8b-0add-4634-8710-f4704da278ff, rgb(13, 13, 13)) /* {&quot;name&quot;:&quot;White&quot;} */"></path><path d="M 153.213 22.499 L 161.675 3.599 L 167.015 3.599 L 175.504 22.499 L 169.863 22.499 L 163.236 6.218 L 165.372 6.218 L 158.745 22.499 Z M 157.841 18.827 L 159.238 14.885 L 168.603 14.885 L 170 18.827 Z" fill="var(--token-ad4d2a8b-0add-4634-8710-f4704da278ff, rgb(13, 13, 13)) /* {&quot;name&quot;:&quot;White&quot;} */"></path><path d="M 78.731 3.599 L 94.477 3.599 L 94.477 7.595 L 78.731 7.595 Z" fill="var(--token-ad4d2a8b-0add-4634-8710-f4704da278ff, rgb(13, 13, 13)) /* {&quot;name&quot;:&quot;White&quot;} */"></path><path d="M 78.731 18.503 L 94.477 18.503 L 94.477 22.499 L 78.731 22.499 Z" fill="var(--token-ad4d2a8b-0add-4634-8710-f4704da278ff, rgb(13, 13, 13)) /* {&quot;name&quot;:&quot;White&quot;} */"></path></svg>